<?xml version="1.0" encoding="UTF-8"?><svg id="Layer_2" xmlns="http://www.w3.org/2000/svg" viewBox="0 0 77.65 32.72"><defs><style>.cls-1{fill:#efefe6;}</style></defs><g id="Layer_1-2"><path class="cls-1" d="M23.96,17.69s2,6.27,2.43,7.67c.53-1.59.97-2.88,1.4-4.17.44-1.33.87-2.67,1.42-4.37.98,2.96,1.84,5.6,2.81,8.53.67-2.13,2.4-7.74,2.4-7.74h2.91s-3.45,9.86-5.29,15.11c-.98-2.82-1.85-5.31-2.83-8.11-.97,2.8-1.85,5.32-2.82,8.1-1.78-5.09-5.15-15.03-5.15-15.03h2.71Z"/><path class="cls-1" d="M13.98,17.49c4.37,0,7.64,3.25,7.63,7.56,0,4.26-3.37,7.53-7.72,7.51-4.23-.02-7.6-3.35-7.6-7.53,0-4.26,3.35-7.54,7.69-7.54ZM18.83,25.15c.07-2.87-2.06-5.3-4.72-5.37-2.7-.07-5,2.3-5.04,5.22-.04,2.74,2.14,5.14,4.76,5.24,2.66.1,4.93-2.2,5-5.09Z"/><path class="cls-1" d="M63.73,22.98v2.16c-.98.05-1.93.09-2.96.14v4.91h3.36v2.21h-5.93v-14.49h5.67c.04.65.07,1.3.11,2.09-1.1.05-2.1.1-3.2.16v2.82h2.94Z"/><path class="cls-1" d="M53.57,25.47v6.9h-2.52v-14.44h5.57v2.15s-2.44,0-2.99,0v3.17h2.84v2.22h-2.9Z"/><path class="cls-1" d="M2.73,30.17c.71,0,3.43.03,3.43.03l-.05,2.17H.24v-14.57h2.49v12.37Z"/><path class="cls-1" d="M41.14,30.17c.71,0,3.38,0,3.38,0v2.2h-5.87v-14.57h2.49v12.37Z"/><path class="cls-1" d="M48.62,17.79v14.48h-2.43v-14.48h2.43Z"/><path class="cls-1" d="M48.33.31c4.37,0,7.64,3.25,7.63,7.56,0,4.26-3.37,7.53-7.72,7.51-4.23-.02-7.6-3.35-7.6-7.53,0-4.26,3.35-7.54,7.69-7.54ZM53.18,7.96c.07-2.87-2.06-5.3-4.72-5.37-2.7-.07-5,2.3-5.04,5.22-.04,2.74,2.14,5.14,4.76,5.24,2.66.1,4.93-2.2,5-5.09Z"/><path class="cls-1" d="M64.31,8.6v6.52h-2.49V0c1.79,2.65,3.44,5.07,5.28,7.79V.62h2.58v15.02c-1.83-2.54-3.46-4.82-5.1-7.09-.09.02-.18.04-.28.06Z"/><path class="cls-1" d="M34.65,10.58v4.62h-2.46V.7c1.76-.07,3.53-.35,5.17.65,1.77,1.07,2.68,2.58,2.49,4.68-.19,2-1.39,3.25-3.15,3.99-.61.26-1.29.36-2.05.56ZM34.71,8.09c1.67-.29,2.49-1.34,2.34-2.86-.12-1.28-1.03-2.14-2.34-2.17v5.03Z"/><path class="cls-1" d="M75.78,15.07h-2.55V2.69c-.66-.07-1.19.02-1.83-.05V.56h6.24v2.05c-.57.07-1.15-.02-1.87.07v12.39Z"/><path class="cls-1" d="M7.34,15.17h-2.44v-7.08h-2.4v7.03H0V.66h2.47v5.04h2.39V.64h2.48v14.53Z"/><path class="cls-1" d="M30.41,15.17h-2.44v-7.08h-2.4v7.03h-2.5V.66h2.47v5.04h2.39V.64h2.48v14.53Z"/><path class="cls-1" d="M11.4.66v14.48h-2.43V.66h2.43Z"/><path class="cls-1" d="M59.68.66v14.48h-2.43V.66h2.43Z"/><path class="cls-1" d="M21.18,6.98v-1.43h-3.93v2.35h1.33s.07.01.11.02v4.63c-2.03-.59-3.48-2.92-3.24-5.1.32-2.91,2.09-4.41,5.73-4.71V.61s-.32-.04-.82-.07c-2.92-.16-5.26,1.1-6.73,3.63-1.52,2.63-1.44,5.34.32,7.84,1.71,2.43,4.16,3.37,7.25,3.07,0-2.75.01-5.43-.02-8.11Z"/></g></svg>