<?xml version="1.0" encoding="UTF-8"?><svg id="Layer_2" xmlns="http://www.w3.org/2000/svg" viewBox="0 0 492.65 55.33"><defs><style>.cls-1{fill:none;stroke:#efefe6;stroke-miterlimit:10;stroke-width:.5px;}</style></defs><g id="Layer_1-2"><path class="cls-1" d="M26.83,54.17v-21.96c0-8.33.1-15.78.3-22.34h-.3c-.66,5.91-1.64,12.95-2.95,21.13l-3.86,23.17h-6.29l-4.39-25.37c-1.16-6.76-1.99-13.05-2.5-18.86h-.38c.25,8.18.38,15.65.38,22.42v21.81H.25V1.16h10.53l3.63,21.66c.66,3.84,1.41,10.43,2.27,19.76h.3c.91-9.64,1.67-16.23,2.27-19.76L22.89,1.16h10.53v53.01h-6.59Z"/><path class="cls-1" d="M59.39,54.17h-6.29l-.3-3.03h-.08c-1.26,2.53-3.36,3.79-6.29,3.79-2.27,0-4.19-.83-5.76-2.5-1.57-1.67-2.35-3.84-2.35-6.51v-1.82c0-1.01.09-1.94.27-2.8.18-.86.38-1.6.61-2.23.23-.63.64-1.31,1.25-2.04.61-.73,1.1-1.3,1.48-1.7.38-.4,1.07-.96,2.08-1.67,1.01-.71,1.78-1.24,2.31-1.59.53-.35,1.5-.97,2.92-1.86,1.41-.88,2.47-1.55,3.18-2.01v-3.79c0-1.06-.3-1.98-.91-2.76-.61-.78-1.54-1.17-2.8-1.17-1.36,0-2.34.45-2.92,1.36-.58.91-.87,1.87-.87,2.88v3.41h-5.76v-3.18c0-2.78.8-5.07,2.39-6.89,1.59-1.82,4.05-2.73,7.38-2.73s5.76.82,7.42,2.46c1.67,1.64,2.5,3.77,2.5,6.4v23.55c0,1.82.18,3.96.53,6.44ZM52.43,42.88v-8.94l-.91.61c-3.03,2.02-4.92,3.52-5.68,4.51-.76.98-1.14,2.71-1.14,5.19,0,3.43,1.08,5.15,3.26,5.15,1.51,0,2.64-.45,3.37-1.36.73-.91,1.1-2.62,1.1-5.15Z"/><path class="cls-1" d="M79.99,15.62v6.21c-2.27,0-4.22.63-5.83,1.89-1.62,1.26-2.42,3.33-2.42,6.21v24.23h-6.66V16.08h6.44l.15,3.56h.08c.96-1.51,1.97-2.56,3.03-3.14,1.06-.58,2.8-.87,5.23-.87Z"/><path class="cls-1" d="M98.01,39.63h6.66v2.42c0,3.89-.73,7-2.2,9.35-1.46,2.35-4.22,3.52-8.25,3.52s-6.96-1.21-8.44-3.63c-1.49-2.42-2.23-5.78-2.23-10.07v-12.27c0-4.44.78-7.84,2.35-10.19,1.56-2.35,4.34-3.52,8.33-3.52,1.87,0,3.46.29,4.77.87,1.31.58,2.33,1.3,3.07,2.16.73.86,1.3,1.99,1.7,3.41.4,1.41.66,2.74.76,3.98.1,1.24.15,2.71.15,4.43h-6.66c0-1.21-.01-2.11-.04-2.69-.03-.58-.06-1.31-.11-2.2-.05-.88-.16-1.53-.34-1.93-.18-.4-.4-.82-.68-1.25-.28-.43-.63-.73-1.06-.91-.43-.18-.97-.26-1.63-.26-.96,0-1.72.19-2.27.57-.56.38-.95,1.02-1.17,1.93-.23.91-.37,1.73-.42,2.46-.05.73-.08,1.83-.08,3.29v11.66c0,1.62.02,2.8.08,3.56.05.76.19,1.6.42,2.54.23.93.62,1.59,1.17,1.97.55.38,1.31.57,2.27.57,1.51,0,2.54-.58,3.07-1.74.53-1.16.79-3.03.79-5.6v-2.42Z"/><path class="cls-1" d="M131.41,54.17h-6.66v-24.31c0-3.23-.22-5.54-.64-6.93-.43-1.39-1.4-2.08-2.92-2.08-2.93,0-4.39,3-4.39,9.01v24.31h-6.66V1.16h6.66v17.57h.08c1.46-2.27,3.53-3.41,6.21-3.41,3.38,0,5.62,1.02,6.7,3.07,1.08,2.04,1.63,5.44,1.63,10.19v25.6Z"/><path class="cls-1" d="M172.61,54.17h-23.4v-6.21c1.36-3.13,3.36-6.59,5.98-10.38,2.62-3.79,4.88-7.17,6.78-10.15,1.89-2.98,2.99-5.63,3.29-7.95.15-1.36.23-2.65.23-3.86,0-1.31-.01-2.33-.04-3.07-.03-.73-.11-1.54-.27-2.42-.15-.88-.39-1.55-.72-2.01-.33-.45-.77-.85-1.33-1.17-.56-.33-1.26-.49-2.12-.49-1.46,0-2.52.54-3.18,1.63-.66,1.09-.98,2.89-.98,5.41v5.45h-6.74v-5.45c0-4.14.9-7.38,2.69-9.73,1.79-2.35,4.56-3.52,8.29-3.52s6.63,1.22,8.52,3.67c1.89,2.45,2.84,5.57,2.84,9.35v2.42c0,1.72-.1,3.28-.3,4.69-.25,2.27-1.1,4.77-2.54,7.5-1.44,2.73-2.98,5.14-4.62,7.23-1.64,2.1-3.32,4.37-5.04,6.82-1.72,2.45-2.88,4.46-3.48,6.02v.15h16.13v6.06Z"/><path class="cls-1" d="M200.85,30.84v8.63c0,2.42-.14,4.48-.42,6.17-.28,1.69-.81,3.29-1.59,4.81-.78,1.51-1.96,2.66-3.52,3.45-1.57.78-3.51,1.17-5.83,1.17-7.72,0-11.59-4.37-11.59-13.1V12.14c0-3.43.92-6.27,2.76-8.52,1.84-2.25,4.66-3.37,8.44-3.37,3.58,0,6.3,1.02,8.14,3.07,1.84,2.04,2.76,4.38,2.76,7v4.92h-6.74v-3.48c0-1.46-.37-2.71-1.1-3.75-.73-1.03-1.78-1.55-3.14-1.55s-2.32.44-3.03,1.33c-.71.88-1.06,2.03-1.06,3.45v12.34l.08.08c1.77-2.07,3.91-3.1,6.44-3.1,2.93,0,5.23.91,6.89,2.73,1.67,1.82,2.5,4.34,2.5,7.57ZM193.81,40.23l-.08-5.83c0-2.52-.27-4.44-.8-5.76-.53-1.31-1.58-1.97-3.14-1.97-3.18,0-4.77,2.5-4.77,7.5v6.44c0,1.11.01,1.98.04,2.61.02.63.11,1.36.27,2.2s.37,1.46.64,1.89c.28.43.69.8,1.25,1.1.56.3,1.24.45,2.04.45,1.87,0,3.09-.71,3.67-2.12.58-1.41.87-3.58.87-6.51Z"/><path class="cls-1" d="M229.63,33.72h-24.61v-4.85h24.61v4.85Z"/><path class="cls-1" d="M255.68,54.17h-23.4v-6.21c1.36-3.13,3.36-6.59,5.98-10.38,2.62-3.79,4.88-7.17,6.78-10.15,1.89-2.98,2.99-5.63,3.29-7.95.15-1.36.23-2.65.23-3.86,0-1.31-.01-2.33-.04-3.07-.03-.73-.11-1.54-.27-2.42-.15-.88-.39-1.55-.72-2.01-.33-.45-.77-.85-1.33-1.17-.56-.33-1.26-.49-2.12-.49-1.46,0-2.52.54-3.18,1.63-.66,1.09-.98,2.89-.98,5.41v5.45h-6.74v-5.45c0-4.14.9-7.38,2.69-9.73,1.79-2.35,4.56-3.52,8.29-3.52s6.63,1.22,8.52,3.67c1.89,2.45,2.84,5.57,2.84,9.35v2.42c0,1.72-.1,3.28-.3,4.69-.25,2.27-1.1,4.77-2.54,7.5-1.44,2.73-2.98,5.14-4.62,7.23-1.64,2.1-3.32,4.37-5.04,6.82-1.72,2.45-2.88,4.46-3.48,6.02v.15h16.13v6.06Z"/><path class="cls-1" d="M283.7,1.16v6.06c-2.42,5-4.86,11.69-7.31,20.07-2.45,8.38-3.98,17.44-4.58,27.19h-7.04c.71-9.29,2.47-18.69,5.3-28.21,2.83-9.52,5.07-15.76,6.74-18.74v-.3h-10.37v6.74h-6.59V1.16h23.85Z"/><path class="cls-1" d="M309.82,33.72h-24.61v-4.85h24.61v4.85Z"/><path class="cls-1" d="M338.15,54.17h-23.4v-6.21c1.36-3.13,3.36-6.59,5.98-10.38,2.62-3.79,4.88-7.17,6.78-10.15,1.89-2.98,2.99-5.63,3.29-7.95.15-1.36.23-2.65.23-3.86,0-1.31-.01-2.33-.04-3.07-.03-.73-.11-1.54-.27-2.42-.15-.88-.39-1.55-.72-2.01-.33-.45-.77-.85-1.33-1.17-.56-.33-1.26-.49-2.12-.49-1.46,0-2.52.54-3.18,1.63-.66,1.09-.98,2.89-.98,5.41v5.45h-6.74v-5.45c0-4.14.9-7.38,2.69-9.73,1.79-2.35,4.56-3.52,8.29-3.52s6.63,1.22,8.52,3.67c1.89,2.45,2.84,5.57,2.84,9.35v2.42c0,1.72-.1,3.28-.3,4.69-.25,2.27-1.1,4.77-2.54,7.5-1.44,2.73-2.98,5.14-4.62,7.23-1.64,2.1-3.32,4.37-5.04,6.82-1.72,2.45-2.88,4.46-3.48,6.02v.15h16.13v6.06Z"/><path class="cls-1" d="M366.39,35.99v7.5c0,7.62-3.81,11.44-11.43,11.44s-11.51-3.86-11.51-11.59v-5.6c0-3.64.35-6.35,1.06-8.14.71-1.79,2.07-3.07,4.09-3.82v-.15c-1.46-.61-2.6-1.6-3.41-2.99-.81-1.39-1.21-3.75-1.21-7.08v-3.79c0-.96.06-1.88.19-2.76.13-.88.42-1.87.87-2.95.45-1.09,1.06-2.02,1.82-2.8.76-.78,1.82-1.45,3.18-2.01,1.36-.55,2.98-.83,4.85-.83,7.32,0,10.98,4.12,10.98,12.34v1.89c0,3.28-.32,5.77-.95,7.46-.63,1.69-1.86,2.87-3.67,3.52v.15c3.43,1.36,5.15,4.77,5.15,10.22ZM359.35,41.14v-5c0-2.47-.34-4.29-1.02-5.45-.68-1.16-1.81-1.74-3.37-1.74-1.67,0-2.83.59-3.48,1.78-.66,1.19-.98,3.04-.98,5.57v5c0,2.52.31,4.42.95,5.68.63,1.26,1.8,1.89,3.52,1.89s2.94-.66,3.52-1.97c.58-1.31.87-3.23.87-5.75ZM358.82,11.91c0-1.87-.25-3.28-.76-4.24-.5-.96-1.57-1.44-3.18-1.44-2.57,0-3.86,1.67-3.86,5v6.66c0,3.33,1.31,5,3.94,5s3.86-1.62,3.86-4.85v-6.13Z"/><path class="cls-1" d="M407.21,54.17h-23.4v-6.21c1.36-3.13,3.36-6.59,5.98-10.38,2.62-3.79,4.88-7.17,6.78-10.15,1.89-2.98,2.99-5.63,3.29-7.95.15-1.36.23-2.65.23-3.86,0-1.31-.01-2.33-.04-3.07-.03-.73-.11-1.54-.27-2.42-.15-.88-.39-1.55-.72-2.01-.33-.45-.77-.85-1.33-1.17-.56-.33-1.26-.49-2.12-.49-1.46,0-2.52.54-3.18,1.63-.66,1.09-.98,2.89-.98,5.41v5.45h-6.74v-5.45c0-4.14.9-7.38,2.69-9.73,1.79-2.35,4.56-3.52,8.29-3.52s6.63,1.22,8.52,3.67c1.89,2.45,2.84,5.57,2.84,9.35v2.42c0,1.72-.1,3.28-.3,4.69-.25,2.27-1.1,4.77-2.54,7.5-1.44,2.73-2.98,5.14-4.62,7.23-1.64,2.1-3.32,4.37-5.04,6.82-1.72,2.45-2.88,4.46-3.48,6.02v.15h16.13v6.06Z"/><path class="cls-1" d="M435.45,11.31v32.03c0,1.57-.18,2.99-.53,4.28-.35,1.29-.95,2.5-1.78,3.63s-2.04,2.03-3.63,2.69c-1.59.66-3.5.98-5.72.98-3.89,0-6.74-1.08-8.56-3.26-1.82-2.17-2.73-4.97-2.73-8.41V11.15c0-3.08.93-5.64,2.8-7.69,1.87-2.04,4.7-3.07,8.48-3.07s6.87,1.01,8.78,3.03c1.92,2.02,2.88,4.65,2.88,7.88ZM428.34,42.51V11.76c0-1.06-.08-1.93-.23-2.61-.15-.68-.57-1.31-1.25-1.89-.68-.58-1.68-.87-2.99-.87-2.93,0-4.39,1.79-4.39,5.38v30.75c0,4.09,1.49,6.13,4.47,6.13.96,0,1.75-.16,2.39-.49.63-.33,1.08-.82,1.36-1.48.28-.66.45-1.29.53-1.89s.11-1.36.11-2.27Z"/><path class="cls-1" d="M464.16,54.17h-23.4v-6.21c1.36-3.13,3.36-6.59,5.98-10.38,2.62-3.79,4.88-7.17,6.78-10.15,1.89-2.98,2.99-5.63,3.29-7.95.15-1.36.23-2.65.23-3.86,0-1.31-.01-2.33-.04-3.07-.03-.73-.11-1.54-.27-2.42-.15-.88-.39-1.55-.72-2.01-.33-.45-.77-.85-1.33-1.17-.56-.33-1.26-.49-2.12-.49-1.46,0-2.52.54-3.18,1.63-.66,1.09-.98,2.89-.98,5.41v5.45h-6.74v-5.45c0-4.14.9-7.38,2.69-9.73,1.79-2.35,4.56-3.52,8.29-3.52s6.63,1.22,8.52,3.67c1.89,2.45,2.84,5.57,2.84,9.35v2.42c0,1.72-.1,3.28-.3,4.69-.25,2.27-1.1,4.77-2.54,7.5-1.44,2.73-2.98,5.14-4.62,7.23-1.64,2.1-3.32,4.37-5.04,6.82-1.72,2.45-2.88,4.46-3.48,6.02v.15h16.13v6.06Z"/><path class="cls-1" d="M492.4,30.84v8.63c0,2.42-.14,4.48-.42,6.17-.28,1.69-.81,3.29-1.59,4.81-.78,1.51-1.96,2.66-3.52,3.45-1.57.78-3.51,1.17-5.83,1.17-7.72,0-11.59-4.37-11.59-13.1V12.14c0-3.43.92-6.27,2.76-8.52,1.84-2.25,4.66-3.37,8.44-3.37,3.58,0,6.3,1.02,8.14,3.07,1.84,2.04,2.76,4.38,2.76,7v4.92h-6.74v-3.48c0-1.46-.37-2.71-1.1-3.75-.73-1.03-1.78-1.55-3.14-1.55s-2.32.44-3.03,1.33c-.71.88-1.06,2.03-1.06,3.45v12.34l.08.08c1.77-2.07,3.91-3.1,6.44-3.1,2.93,0,5.23.91,6.89,2.73,1.67,1.82,2.5,4.34,2.5,7.57ZM485.36,40.23l-.08-5.83c0-2.52-.27-4.44-.8-5.76-.53-1.31-1.58-1.97-3.14-1.97-3.18,0-4.77,2.5-4.77,7.5v6.44c0,1.11.01,1.98.04,2.61.02.63.11,1.36.27,2.2s.37,1.46.64,1.89c.28.43.69.8,1.25,1.1.56.3,1.24.45,2.04.45,1.87,0,3.09-.71,3.67-2.12.58-1.41.87-3.58.87-6.51Z"/></g></svg>