<?xml version="1.0" encoding="UTF-8"?><svg id="Layer_2" xmlns="http://www.w3.org/2000/svg" viewBox="0 0 100.96 32.25"><defs><style>.cls-1{fill:#efefe6;}</style></defs><g id="Layer_1-2"><path class="cls-1" d="M46.39,32.25H10.84s-.02-.05-.03-.07c.43-.25.86-.51,1.29-.76,4.68-2.7,9.36-5.4,14.05-8.1,3.64-2.1,7.28-4.2,10.9-6.31.33-.19.46-.15.65.18,2.79,4.86,5.6,9.71,8.4,14.56.09.15.17.3.29.5Z"/><path class="cls-1" d="M11.29,30.14C16.93,20.38,22.57,10.62,28.25.77c2.87,4.97,5.69,9.85,8.54,14.79-8.48,4.9-16.95,9.79-25.42,14.67-.03-.03-.05-.06-.08-.09Z"/><path class="cls-1" d="M9.96,29.41c0-.11,0-.21,0-.32,0-9.5,0-19,0-28.51q0-.51.51-.51c5.35,0,10.7,0,16.04,0,.14,0,.29,0,.52,0-5.69,9.85-11.32,19.61-16.96,29.37-.04-.01-.08-.03-.12-.04Z"/><path class="cls-1" d="M8.55,1.48v29.41l-.11.09c-.03-.08-.06-.16-.1-.23-2.38-4.12-4.75-8.25-7.13-12.37-.37-.65-.74-1.3-1.12-1.93-.12-.2-.11-.34,0-.54,1.51-2.6,3.01-5.21,4.51-7.81,1.22-2.12,2.45-4.24,3.68-6.36.06-.1.13-.2.19-.3.03.01.05.03.08.04Z"/><path class="cls-1" d="M72.2,26.31c.86,1.83,1.77,3.77,2.73,5.8-.34,0-.6,0-.86,0-.61,0-1.22-.02-1.82,0-.29.01-.43-.1-.55-.35-.74-1.58-1.49-3.15-2.22-4.73-.13-.27-.28-.37-.58-.37-1.1.01-1.1,0-1.1,1.1,0,1.3-.01,2.59.01,3.89,0,.36-.1.47-.46.46-.63-.03-1.27-.02-1.9,0-.32.01-.42-.09-.42-.41.01-1.46,0-2.92,0-4.38,0-2.88,0-5.75,0-8.63,0-.41.12-.53.53-.52,1.54.02,3.08-.02,4.62.02,1.57.04,2.83.74,3.59,2.13.8,1.47.82,3-.07,4.43-.35.57-.93.99-1.49,1.55ZM67.8,22.44c0,.43,0,.86,0,1.29,0,.2.07.3.28.29.73-.02,1.46.01,2.18-.04.84-.06,1.32-.67,1.3-1.55-.02-.87-.61-1.54-1.43-1.57-.67-.03-1.35,0-2.02-.02-.25,0-.33.1-.32.34.01.42,0,.84,0,1.25Z"/><path class="cls-1" d="M72,8.31c.93,1.97,1.84,3.89,2.77,5.88-.19.02-.32.04-.45.04-.74,0-1.49,0-2.23,0-.26,0-.41-.08-.52-.33-.73-1.58-1.49-3.15-2.22-4.73-.13-.29-.28-.42-.61-.39-.23.03-.46.02-.69,0-.32-.03-.42.1-.41.42.01,1.53,0,3.05.02,4.58,0,.37-.12.46-.46.45-.63-.02-1.27-.01-1.9,0-.28,0-.4-.06-.4-.38.01-4.36.01-8.72,0-13.09,0-.36.09-.49.47-.48,1.49.02,2.97,0,4.46.01,3.75.06,5.28,3.79,3.81,6.44-.28.51-.81.88-1.24,1.31-.1.1-.24.17-.39.27ZM67.68,6.13c.77,0,1.51.01,2.25,0,.9-.02,1.46-.58,1.48-1.48.02-.93-.57-1.64-1.43-1.68-.67-.03-1.35,0-2.02-.01-.26,0-.31.13-.31.35,0,.8,0,1.59,0,2.39,0,.13.02.26.03.43Z"/><path class="cls-1" d="M58.93,9.47c-.81,0-1.63,0-2.45,0q-.56,0-.56-.58c0-.54,0-1.08,0-1.62,0-.23.04-.35.31-.35,1.74,0,3.48,0,5.23,0,.18,0,.32.02.31.26-.03,1.04.05,2.1-.11,3.11-.48,2.91-2.89,4.59-5.84,4.18-2.05-.28-3.26-1.54-3.84-3.42-.77-2.5-.81-5.03-.06-7.54C52.59,1.26,54.4-.05,56.68,0c2.23.05,4.09,1.57,4.68,3.8.09.35.14.71.2,1.07.04.2-.03.29-.25.32-.66.07-1.31.16-1.97.26-.23.03-.33-.02-.37-.28-.05-.36-.13-.72-.27-1.05-.42-1.06-1.18-1.52-2.36-1.44-1,.06-1.68.62-1.91,1.73-.17.84-.27,1.71-.27,2.57,0,1.01.07,2.03.26,3.01.32,1.65,1.39,2.18,3.07,1.74.94-.25,1.57-1.27,1.43-2.26Z"/><path class="cls-1" d="M80.54,26.14v3.29c.16.01.32.03.48.03,1.73,0,3.46.01,5.19,0,.33,0,.42.1.41.41-.02.63-.01,1.27,0,1.9,0,.23-.06.35-.32.34-2.78,0-5.57,0-8.35-.01-.04,0-.08-.02-.16-.04,0-.14-.03-.28-.03-.42,0-4.34,0-8.67-.01-13.01,0-.37.12-.45.46-.45,2.63.01,5.27.01,7.9,0,.4,0,.51.13.5.51-.03.58-.02,1.16,0,1.74.01.35-.12.43-.45.43-1.7-.01-3.4,0-5.11,0-.16,0-.32.01-.51.02v2.59c.16,0,.33,0,.5,0,1.5,0,3,.01,4.5-.01.42,0,.53.12.51.52-.03.7,0,1.4,0,2.16h-5.51Z"/><path class="cls-1" d="M76.76,14.15c.4-1.17.8-2.32,1.2-3.46,1.15-3.33,2.31-6.65,3.46-9.98.1-.29.23-.44.57-.42.55.03,1.11.02,1.66,0,.25,0,.36.09.44.32.86,2.51,1.73,5.03,2.6,7.54.64,1.85,1.28,3.7,1.92,5.55.05.15.08.3.15.54-.42,0-.77,0-1.13,0-.47,0-.95,0-1.42,0-.25,0-.39-.08-.47-.33-.18-.59-.4-1.18-.58-1.77-.07-.23-.19-.31-.43-.31-1.34.01-2.67.01-4.01,0-.27,0-.38.1-.45.35-.19.61-.39,1.21-.62,1.8-.04.11-.19.25-.29.25-.81.02-1.62,0-2.43,0-.03,0-.07-.03-.16-.08ZM84.15,9.13c-.47-1.49-.93-2.94-1.38-4.38-.03,0-.06,0-.09,0-.45,1.45-.91,2.9-1.37,4.39h2.84Z"/><path class="cls-1" d="M62.52,32.11c-.96,0-1.84,0-2.71-.01-.1,0-.24-.15-.29-.26-.22-.6-.42-1.2-.61-1.8-.08-.24-.2-.35-.46-.34-1.34.01-2.68,0-4.01,0-.22,0-.34.07-.41.29-.18.59-.4,1.17-.59,1.77-.08.26-.2.37-.48.36-.79-.02-1.59,0-2.45,0,.05-.19.08-.33.12-.46,1.52-4.37,3.04-8.75,4.55-13.13.08-.24.2-.34.46-.34.57.02,1.14.02,1.7,0,.3-.01.42.11.51.38,1.17,3.42,2.35,6.84,3.53,10.26.32.93.65,1.86.97,2.79.05.14.08.28.15.49ZM57.9,27.02c-.48-1.51-.94-2.96-1.4-4.4h-.08c-.45,1.45-.91,2.91-1.37,4.4h2.84Z"/><path class="cls-1" d="M88.91,32.1c.32-.94.62-1.79.91-2.64,1.25-3.61,2.51-7.22,3.75-10.83.12-.34.27-.47.63-.45.54.03,1.08.02,1.62,0,.23,0,.36.06.44.3,1.34,3.89,2.68,7.78,4.03,11.68.21.62.43,1.24.67,1.94-.75,0-1.42,0-2.09,0-1.01-.02-.78.17-1.11-.78-.15-.45-.28-.9-.47-1.34-.06-.13-.26-.28-.4-.28-1.35-.02-2.7,0-4.05-.02-.24,0-.33.1-.4.31-.2.62-.41,1.23-.63,1.84-.04.1-.16.25-.24.26-.86.02-1.72.01-2.67.01ZM94.95,22.65s-.07,0-.1,0c-.45,1.44-.9,2.89-1.36,4.36h2.84c-.47-1.48-.93-2.93-1.38-4.37Z"/><path class="cls-1" d="M88.2.3c.28,0,.5,0,.73,0,.62,0,1.24.02,1.86,0,.32-.01.48.11.62.38.79,1.51,1.59,3.01,2.39,4.51.08.15.17.3.29.52.41-.76.8-1.46,1.18-2.16.53-.97,1.06-1.94,1.57-2.92.12-.23.26-.34.53-.33.76.02,1.51,0,2.27,0,.1,0,.21.02.38.03-.29.51-.54.98-.81,1.44-1.14,1.99-2.27,3.99-3.42,5.97-.22.38-.34.77-.33,1.22.02,1.59,0,3.19.02,4.78,0,.4-.13.51-.51.49-.74-.03-1.48,0-2.26,0,0-.2,0-.33,0-.46,0-1.7,0-3.4,0-5.11,0-.21-.09-.45-.2-.64-1.38-2.46-2.77-4.92-4.15-7.38-.05-.09-.08-.19-.15-.36Z"/></g></svg>