<?xml version="1.0" encoding="UTF-8"?><svg id="Layer_2" xmlns="http://www.w3.org/2000/svg" viewBox="0 0 673.24 229.27"><defs><style>.cls-1{fill:#0ec646;}.cls-2{fill:#efefe6;}</style></defs><g id="Layer_1-2"><path class="cls-2" d="M33.2,74.49H14.77l-3.14,16.99H0L17.64,0h13.46l17.51,91.48h-12.28l-3.14-16.99ZM16.6,64.04h14.77l-3.92-26.53c-1.22-7.84-2.27-15.51-3.14-23h-.39c-.78,6.88-1.87,14.55-3.27,23l-4.05,26.53Z"/><path class="cls-2" d="M67.3,91.48h-11.5V0h11.5v91.48Z"/><path class="cls-2" d="M90.57,24.44c4.79,0,8.58,2,11.37,6.01h.13l.26-4.7h11.11v67.83c0,4.88-1.55,8.86-4.64,11.96-3.09,3.09-7.51,4.64-13.26,4.64-11.07,0-16.77-5.4-17.12-16.21h10.98c.17,5.05,2.26,7.58,6.27,7.58,4.53,0,6.8-2.53,6.8-7.58v-8.62c-.09,0-.13-.02-.13-.07s-.04-.07-.13-.07c-2.18,3.75-5.53,5.62-10.06,5.62-10.28,0-15.42-7.06-15.42-21.17v-20.78c0-8.97.89-15.29,2.68-18.95,1.78-3.66,5.51-5.49,11.17-5.49ZM94.75,33.98c-2.7,0-4.47,1.07-5.29,3.2-.83,2.14-1.24,6.17-1.24,12.09v17.51c0,9.5,2.26,14.24,6.8,14.24s6.93-4.62,6.93-13.85v-17.38c0-10.54-2.4-15.81-7.19-15.81Z"/><path class="cls-2" d="M159.31,44.56v28.49c0,5.4-1.48,10.04-4.44,13.92-2.96,3.88-7.49,5.82-13.59,5.82s-10.7-1.87-13.79-5.62c-3.09-3.75-4.64-8.49-4.64-14.25v-28.75c0-5.84,1.59-10.61,4.77-14.31,3.18-3.7,7.73-5.55,13.66-5.55s10.63,1.92,13.59,5.75c2.96,3.83,4.44,8.67,4.44,14.51ZM147.81,71.75v-26.53c0-3.92-.48-6.77-1.44-8.56-.96-1.78-2.7-2.68-5.23-2.68s-4.29.89-5.29,2.68c-1,1.79-1.5,4.51-1.5,8.17v26.92c0,3.92.41,6.82,1.24,8.69.83,1.87,2.68,2.81,5.55,2.81,2.61,0,4.38-.96,5.29-2.88.92-1.92,1.37-4.79,1.37-8.63Z"/><path class="cls-2" d="M194.46,24.96v10.72c-3.92,0-7.28,1.09-10.06,3.27-2.79,2.18-4.18,5.75-4.18,10.72v41.82h-11.5V25.75h11.11l.26,6.14h.13c1.65-2.61,3.4-4.42,5.23-5.42,1.83-1,4.84-1.5,9.02-1.5Z"/><path class="cls-2" d="M213.15,16.99h-11.5V3.66h11.5v13.33ZM213.15,91.48h-11.5V25.75h11.5v65.74Z"/><path class="cls-2" d="M250.27,35.16h-9.8v40.51c0,2.61.35,4.38,1.05,5.29.7.92,2.09,1.37,4.18,1.37.7,0,2.18-.09,4.44-.26v9.41c-1.92.17-4.62.26-8.1.26-8.71,0-13.07-4.53-13.07-13.59v-43h-7.97v-9.41h7.97V3.53h11.5v22.22h9.8v9.41Z"/><path class="cls-2" d="M294.83,91.48h-11.5v-41.95c0-5.57-.37-9.56-1.11-11.96-.74-2.4-2.42-3.59-5.03-3.59-5.05,0-7.58,5.18-7.58,15.55v41.95h-11.5V0h11.5v30.32h.13c2.53-3.92,6.1-5.88,10.72-5.88,5.84,0,9.69,1.76,11.57,5.29,1.87,3.53,2.81,9.39,2.81,17.58v44.17Z"/><path class="cls-2" d="M366.71,91.48h-11.5v-46.26c0-3.92-.41-6.77-1.24-8.56-.83-1.78-2.33-2.68-4.51-2.68s-3.9.89-5.42,2.68c-1.53,1.79-2.29,4.64-2.29,8.56v46.26h-11.5v-45.61c0-4.27-.39-7.32-1.18-9.15-.78-1.83-2.35-2.74-4.7-2.74-2.09,0-3.88.91-5.36,2.74-1.48,1.83-2.22,4.66-2.22,8.49v46.26h-11.5V25.75h11.11l.26,4.7h.26c2.53-4.01,6.19-6.01,10.98-6.01,5.92,0,9.93,2.22,12.02,6.67h.13c2.7-4.44,6.88-6.67,12.55-6.67,4.62,0,8.12,1.33,10.52,3.99,2.4,2.66,3.59,6.47,3.59,11.44v51.62Z"/><path class="cls-2" d="M388.67,16.99h-11.5V3.66h11.5v13.33ZM388.67,91.48h-11.5V25.75h11.5v65.74Z"/><path class="cls-2" d="M423.04,66.39h11.5v4.18c0,6.71-1.26,12.09-3.79,16.14-2.53,4.05-7.28,6.08-14.25,6.08s-12-2.09-14.57-6.27c-2.57-4.18-3.85-9.98-3.85-17.38v-21.17c0-7.67,1.35-13.53,4.05-17.58,2.7-4.05,7.49-6.08,14.38-6.08,3.22,0,5.97.5,8.23,1.5,2.26,1,4.03,2.24,5.29,3.72,1.26,1.48,2.24,3.44,2.94,5.88.7,2.44,1.13,4.73,1.31,6.86.17,2.14.26,4.68.26,7.65h-11.5c0-2.09-.02-3.64-.06-4.64-.04-1-.11-2.26-.2-3.79-.09-1.52-.28-2.63-.59-3.33-.31-.7-.7-1.42-1.18-2.16-.48-.74-1.09-1.26-1.83-1.57-.74-.3-1.68-.46-2.81-.46-1.66,0-2.96.33-3.92.98-.96.65-1.63,1.76-2.03,3.33-.39,1.57-.63,2.99-.72,4.25-.09,1.26-.13,3.16-.13,5.69v20.13c0,2.79.04,4.84.13,6.14.09,1.31.33,2.77.72,4.38.39,1.61,1.07,2.74,2.03,3.4.96.65,2.26.98,3.92.98,2.61,0,4.38-1,5.29-3.01.92-2,1.37-5.23,1.37-9.67v-4.18Z"/><path class="cls-1" d="M522.44,143.89h11.08l3.3,19.91c1.67,9.85,3.08,20.93,4.22,33.23h.26c1.23-11.43,2.77-22.51,4.62-33.23l3.43-19.91h11.21l-13.19,66.34h-12.53l-12.4-66.34Z"/><path class="cls-1" d="M605.99,178.84v9.5c0,15.65-6.46,23.48-19.39,23.48s-19.52-7.12-19.52-21.36v-8.7h12v8.97c0,3.25.64,5.78,1.91,7.58,1.27,1.8,3.05,2.7,5.34,2.7,3.08,0,5.08-1.21,6-3.63.92-2.42,1.38-6,1.38-10.75v-6.86c0-4.83-.51-8.4-1.52-10.68-1.01-2.29-3.23-3.43-6.66-3.43h-6.86v-10.02h6.86c3.34,0,5.49-1.1,6.46-3.3.97-2.2,1.45-5.93,1.45-11.21v-2.51c0-3.69-.46-6.53-1.38-8.51s-2.66-2.97-5.21-2.97c-4.66,0-6.99,2.9-6.99,8.7v8.18h-12v-8.04c0-5.45,1.54-10.09,4.62-13.91,3.08-3.82,7.82-5.74,14.24-5.74,6.77,0,11.56,2.02,14.38,6.07,2.81,4.04,4.22,10.2,4.22,18.46,0,6.42-.53,10.95-1.58,13.58-1.05,2.64-3.08,4.53-6.07,5.67v.4c3.43,1.32,5.67,3.54,6.73,6.66,1.06,3.12,1.58,7.01,1.58,11.67Z"/><path class="cls-1" d="M625.49,210.22h-12v-13.58h12v13.58Z"/><path class="cls-1" d="M673.24,135.58v55.79c0,2.73-.31,5.21-.92,7.45-.62,2.24-1.65,4.35-3.1,6.33-1.45,1.98-3.56,3.54-6.33,4.68s-6.09,1.71-9.96,1.71c-6.77,0-11.74-1.89-14.9-5.67-3.17-3.78-4.75-8.66-4.75-14.64v-55.92c0-5.36,1.63-9.83,4.88-13.39,3.25-3.56,8.18-5.34,14.77-5.34s11.96,1.76,15.3,5.28c3.34,3.52,5.01,8.09,5.01,13.72ZM660.84,189.92v-53.54c0-1.85-.13-3.36-.4-4.55-.26-1.19-.99-2.29-2.18-3.3-1.19-1.01-2.92-1.52-5.21-1.52-5.1,0-7.65,3.12-7.65,9.36v53.54c0,7.12,2.59,10.68,7.78,10.68,1.67,0,3.05-.28,4.15-.86,1.1-.57,1.89-1.43,2.37-2.57.48-1.14.79-2.24.92-3.3.13-1.05.2-2.37.2-3.96Z"/><path class="cls-2" d="M33.19,193.55H14.77l-3.14,16.99H0l17.64-91.48h13.46l17.51,91.48h-12.28l-3.14-16.99ZM16.6,183.1h14.77l-3.92-26.53c-1.22-7.84-2.27-15.51-3.14-23h-.39c-.78,6.88-1.87,14.55-3.27,23l-4.05,26.53Z"/><path class="cls-2" d="M81.55,144.02v10.72c-3.92,0-7.28,1.09-10.06,3.27-2.79,2.18-4.18,5.75-4.18,10.72v41.82h-11.5v-65.74h11.11l.26,6.14h.13c1.65-2.61,3.4-4.42,5.23-5.42,1.83-1,4.84-1.5,9.02-1.5Z"/><path class="cls-2" d="M115.4,154.22h-9.8v40.51c0,2.61.35,4.38,1.05,5.29.7.92,2.09,1.37,4.18,1.37.7,0,2.18-.09,4.44-.26v9.41c-1.92.17-4.62.26-8.1.26-8.71,0-13.07-4.53-13.07-13.59v-43h-7.97v-9.41h7.97v-22.22h11.5v22.22h9.8v9.41Z"/><path class="cls-2" d="M173.74,193.4h-18.6l-3.17,17.14h-11.74l17.8-92.32h13.58l17.67,92.32h-12.4l-3.17-17.14ZM156.99,182.85h14.9l-3.96-26.77c-1.23-7.91-2.29-15.65-3.17-23.21h-.4c-.79,6.95-1.89,14.68-3.3,23.21l-4.09,26.77Z"/><path class="cls-2" d="M229.79,195.77c0,4.57-1.45,8.4-4.35,11.47-2.9,3.08-7.17,4.62-12.79,4.62-6.16,0-10.71-1.65-13.65-4.95-2.95-3.3-4.42-7.14-4.42-11.54v-7.65h10.81v6.46c0,5.54,2.2,8.31,6.59,8.31,2.29,0,4-.53,5.14-1.58,1.14-1.06,1.71-3.03,1.71-5.93,0-1.67-.15-3.12-.46-4.35-.31-1.23-.97-2.39-1.98-3.5-1.01-1.1-1.83-1.91-2.44-2.44-.62-.53-1.94-1.49-3.96-2.9-2.02-1.41-3.52-2.46-4.48-3.17-4.05-2.9-6.77-5.74-8.18-8.51-1.41-2.77-2.11-6.88-2.11-12.33,0-4.83,1.58-8.55,4.75-11.14,3.17-2.59,7.25-3.89,12.26-3.89s9.1,1.45,12.27,4.35,4.75,6.46,4.75,10.68v7.52h-10.68v-5.14c0-5.28-2.16-7.91-6.46-7.91-3.87,0-5.8,2.51-5.8,7.52,0,2.02.46,3.8,1.38,5.34.92,1.54,1.87,2.7,2.84,3.49.97.79,2.59,1.94,4.88,3.43,2.72,1.76,4.68,3.12,5.87,4.09,1.19.97,2.59,2.4,4.22,4.29,1.63,1.89,2.75,4.07,3.36,6.53.61,2.46.92,5.41.92,8.84Z"/><path class="cls-2" d="M272.91,195.77c0,4.57-1.45,8.4-4.35,11.47-2.9,3.08-7.17,4.62-12.79,4.62-6.16,0-10.71-1.65-13.65-4.95-2.95-3.3-4.42-7.14-4.42-11.54v-7.65h10.81v6.46c0,5.54,2.2,8.31,6.59,8.31,2.29,0,4-.53,5.14-1.58,1.14-1.06,1.71-3.03,1.71-5.93,0-1.67-.15-3.12-.46-4.35-.31-1.23-.97-2.39-1.98-3.5-1.01-1.1-1.83-1.91-2.44-2.44-.62-.53-1.94-1.49-3.96-2.9-2.02-1.41-3.52-2.46-4.48-3.17-4.05-2.9-6.77-5.74-8.18-8.51-1.41-2.77-2.11-6.88-2.11-12.33,0-4.83,1.58-8.55,4.75-11.14,3.17-2.59,7.25-3.89,12.26-3.89s9.1,1.45,12.27,4.35,4.75,6.46,4.75,10.68v7.52h-10.68v-5.14c0-5.28-2.16-7.91-6.46-7.91-3.87,0-5.8,2.51-5.8,7.52,0,2.02.46,3.8,1.38,5.34.92,1.54,1.87,2.7,2.84,3.49.97.79,2.59,1.94,4.88,3.43,2.72,1.76,4.68,3.12,5.87,4.09,1.19.97,2.59,2.4,4.22,4.29,1.63,1.89,2.75,4.07,3.36,6.53.61,2.46.92,5.41.92,8.84Z"/><path class="cls-2" d="M317.88,163.2v15.96h-25.19v11.08c0,4.13.46,7.17,1.38,9.1.92,1.94,2.7,2.9,5.34,2.9,1.58,0,2.88-.35,3.89-1.06,1.01-.7,1.71-1.85,2.11-3.43.4-1.58.64-3.03.73-4.35.09-1.32.13-3.25.13-5.8h11.61c0,3.52-.18,6.46-.53,8.84-.35,2.37-1.1,4.86-2.24,7.45-1.14,2.59-3.03,4.57-5.67,5.93-2.64,1.36-5.98,2.04-10.02,2.04s-7.06-.64-9.56-1.91c-2.51-1.27-4.37-3.14-5.6-5.6-1.23-2.46-2.07-5.01-2.51-7.65-.44-2.64-.66-5.8-.66-9.5v-20.57c0-7.74,1.38-13.65,4.15-17.74s7.45-6.13,14.05-6.13,11.67,1.98,14.44,5.93,4.15,8.79,4.15,14.51ZM292.69,163.46v6.59h13.58v-2.77c0-2.55-.05-4.5-.13-5.87-.09-1.36-.33-2.84-.73-4.42-.4-1.58-1.1-2.72-2.11-3.43-1.01-.7-2.31-1.06-3.89-1.06-2.55,0-4.31.9-5.28,2.7-.97,1.8-1.45,4.55-1.45,8.24Z"/><path class="cls-2" d="M389.5,210.54h-11.61v-46.69c0-3.96-.42-6.84-1.25-8.64-.84-1.8-2.35-2.7-4.55-2.7s-3.94.9-5.47,2.7c-1.54,1.8-2.31,4.68-2.31,8.64v46.69h-11.61v-46.03c0-4.31-.4-7.39-1.19-9.23-.79-1.85-2.37-2.77-4.75-2.77-2.11,0-3.91.92-5.41,2.77-1.5,1.85-2.24,4.7-2.24,8.57v46.69h-11.61v-66.34h11.21l.26,4.75h.26c2.55-4.04,6.24-6.07,11.08-6.07,5.98,0,10.02,2.24,12.13,6.73h.13c2.72-4.48,6.94-6.73,12.66-6.73,4.66,0,8.2,1.34,10.62,4.02,2.42,2.68,3.63,6.53,3.63,11.54v52.09Z"/><path class="cls-2" d="M422.6,211.86c-4.66,0-8.31-2.06-10.95-6.2h-.13l-.26,4.88h-11.21v-92.32h11.61v30.73c2.81-4.04,6.46-6.07,10.95-6.07,2.72,0,5.05.55,6.99,1.65,1.93,1.1,3.38,2.37,4.35,3.82.97,1.45,1.69,3.52,2.18,6.2.48,2.68.77,4.9.86,6.66.09,1.76.13,4.22.13,7.39v19.39c0,3.25-.05,5.74-.13,7.45-.09,1.71-.38,3.8-.86,6.26-.48,2.46-1.21,4.31-2.18,5.54-.97,1.23-2.4,2.31-4.29,3.23-1.89.92-4.24,1.38-7.06,1.38ZM419.04,202.23c1.49,0,2.7-.35,3.63-1.06.92-.7,1.58-1.93,1.98-3.69.4-1.76.64-3.43.73-5.01.09-1.58.13-3.96.13-7.12v-16.49c0-2.64-.07-4.75-.2-6.33s-.38-3.23-.73-4.95c-.35-1.71-.97-2.97-1.85-3.76-.88-.79-2.02-1.19-3.43-1.19-5.1,0-7.65,5.32-7.65,15.96v17.01c0,11.08,2.46,16.62,7.39,16.62Z"/><path class="cls-2" d="M458.21,210.54h-11.61v-92.32h11.61v92.32Z"/><path class="cls-2" d="M501.73,144.21l-13.58,72.4c-1.67,8.44-6.33,12.66-13.98,12.66-2.37,0-4.97-.13-7.78-.4v-10.42c2.11.26,4.17.4,6.2.4,1.58,0,2.86-.48,3.82-1.45.97-.97,1.45-2.37,1.45-4.22,0-.53-.09-1.41-.26-2.64l-12.79-66.34h11.21l3.82,22.29c.61,3.34,1.16,7.19,1.65,11.54.48,4.35.88,8.27,1.19,11.74.31,3.47.5,5.6.59,6.4h.26c1.06-10.29,2.33-20.4,3.82-30.33l3.3-21.63h11.08Z"/></g></svg>